<?xml version="1.0" standalone="no"?>
<!DOCTYPE svg PUBLIC "-//W3C//DTD SVG 20010904//EN"
 "http://www.w3.org/TR/2001/REC-SVG-20010904/DTD/svg10.dtd">
<svg version="1.0" xmlns="http://www.w3.org/2000/svg"
 width="1199.000000pt" height="1199.000000pt" viewBox="0 0 1199.000000 1199.000000"
 preserveAspectRatio="xMidYMid meet">
<metadata>
Created by potrace 1.14, written by Peter Selinger 2001-2017
</metadata>
<g transform="translate(0.000000,1199.000000) scale(0.100000,-0.100000)"
fill="#000000" stroke="none">
<path d="M6298 9238 c-76 -30 -148 -105 -178 -185 -32 -84 -25 -197 15 -272
39 -71 84 -114 152 -146 322 -153 622 256 381 520 -66 73 -120 97 -228 101
-70 4 -95 0 -142 -18z"/>
<path d="M7315 9240 c-78 -40 -80 -46 -83 -300 -3 -221 -3 -226 20 -259 13
-19 36 -44 51 -55 28 -21 34 -21 730 -21 684 0 703 1 736 20 19 11 43 33 55
48 20 27 21 40 21 261 l0 232 -25 31 c-51 65 -30 63 -783 63 -665 0 -683 -1
-722 -20z"/>
<path d="M4249 8927 c-23 -17 -40 -52 -70 -142 -15 -44 -41 -118 -57 -165 -66
-183 -135 -379 -167 -470 -18 -52 -54 -153 -80 -225 -56 -155 -153 -431 -201
-570 -19 -55 -41 -114 -49 -132 -8 -17 -15 -34 -15 -38 0 -4 -38 -114 -84
-244 -46 -130 -148 -416 -226 -636 -77 -220 -150 -422 -160 -450 -10 -27 -44
-122 -75 -210 -101 -288 -108 -306 -117 -311 -4 -3 -48 6 -96 20 -301 87 -320
90 -373 59 -20 -12 -33 -30 -40 -58 -6 -22 -22 -76 -34 -120 -100 -351 -102
-364 -54 -412 16 -18 44 -35 62 -38 35 -7 131 -34 245 -67 39 -12 72 -26 72
-32 0 -12 -47 -169 -60 -201 -25 -61 -93 -305 -94 -338 -1 -32 5 -44 32 -68
l32 -29 266 0 c250 0 269 1 299 20 35 22 42 33 55 95 9 42 49 198 95 370 15
55 29 111 32 125 3 14 11 28 16 32 6 3 76 7 157 7 80 1 157 3 169 6 13 2 56 7
95 10 98 9 313 42 421 66 574 127 1054 378 1429 747 147 145 328 373 391 495
11 20 23 37 27 37 5 0 8 -272 8 -605 0 -397 3 -605 10 -605 6 0 10 -6 10 -12
1 -20 33 -54 71 -74 29 -16 59 -19 228 -20 200 -1 235 4 282 41 63 50 59 -88
59 1807 l0 1723 -21 34 c-28 46 -57 69 -99 77 -19 4 -120 7 -225 7 -180 0
-194 -1 -232 -22 -79 -45 -77 -35 -84 -491 -4 -223 -10 -418 -13 -435 -4 -16
-12 -52 -18 -80 -65 -311 -223 -643 -452 -950 -73 -97 -235 -285 -246 -285
-10 0 -11 3 -130 345 -56 160 -172 488 -257 730 -86 242 -159 451 -163 465 -5
14 -59 167 -120 340 -108 305 -160 452 -255 725 -27 80 -53 137 -66 148 -25
20 -106 23 -130 4z m135 -1778 c35 -101 93 -267 129 -369 35 -102 99 -284 141
-405 43 -121 85 -240 95 -265 10 -25 26 -70 36 -100 9 -30 33 -99 52 -152 19
-53 32 -101 29 -107 -10 -16 -165 -114 -266 -168 -147 -79 -354 -159 -526
-202 -175 -43 -472 -78 -480 -56 -4 10 87 282 101 306 4 5 8 17 10 27 2 11 26
79 53 153 28 74 58 157 67 184 9 28 20 59 25 70 4 11 27 74 50 140 24 66 47
131 53 145 5 14 11 30 13 35 1 6 22 66 47 135 24 69 82 229 127 355 46 127
100 279 121 338 40 112 48 131 55 124 2 -2 33 -86 68 -188z"/>
<path d="M7370 8430 c-57 -7 -96 -33 -121 -81 -19 -37 -19 -75 -19 -1766 l0
-1727 26 -37 c45 -65 74 -73 284 -75 240 -2 287 11 329 93 11 23 14 591 12
2644 l-1 846 -23 34 c-40 61 -75 71 -270 72 -94 1 -192 0 -217 -3z"/>
<path d="M5878 4452 c-17 -3 -18 -30 -18 -403 l0 -399 75 0 c71 0 75 1 76 23
3 118 -1 770 -4 773 -6 6 -106 11 -129 6z"/>
<path d="M6146 4450 c-1 -3 -2 -183 -2 -400 l1 -395 75 0 75 0 0 393 c0 216
-2 396 -5 400 -6 8 -141 10 -144 2z"/>
<path d="M7376 4248 c3 -90 7 -197 9 -238 1 -41 3 -87 4 -102 1 -25 3 -26 61
-27 33 0 61 3 61 7 2 10 6 103 14 325 l7 197 -81 0 -80 0 5 -162z"/>
<path d="M7030 4289 c0 -72 -5 -79 -52 -73 -19 2 -28 -2 -29 -12 -9 -95 -6
-102 37 -99 19 1 37 -1 39 -5 2 -4 5 -85 5 -180 2 -204 9 -228 77 -261 34 -17
57 -20 103 -17 33 2 62 7 65 10 9 9 12 87 3 101 -4 6 -23 12 -43 13 -20 2 -40
5 -43 9 -4 4 -8 80 -10 169 l-3 162 48 -1 48 0 0 55 0 55 -45 0 -45 0 -5 70
-5 70 -72 0 -73 0 0 -66z"/>
<path d="M5435 4214 c-27 -7 -53 -13 -57 -14 -12 0 -78 -62 -89 -83 -6 -11
-13 -32 -15 -47 l-5 -27 72 2 c60 0 72 4 81 20 6 11 18 26 26 33 23 18 86 15
110 -5 21 -18 35 -73 23 -90 -3 -5 -33 -9 -66 -10 -85 -1 -133 -11 -174 -38
-49 -30 -62 -48 -76 -102 -30 -117 57 -213 191 -213 39 0 64 10 117 45 15 10
27 14 26 9 -7 -40 -1 -44 81 -44 44 0 80 2 80 4 0 3 -5 17 -11 32 -5 16 -11
111 -13 213 -2 204 -8 225 -65 274 -56 47 -152 63 -236 41z m150 -356 c1 -51
-8 -68 -44 -87 -59 -32 -131 -4 -131 49 0 56 56 90 140 86 34 -1 35 -2 35 -48z"/>
<path d="M6595 4216 c-127 -39 -187 -124 -191 -271 -3 -99 14 -158 62 -213 49
-58 111 -85 200 -88 93 -4 163 21 212 74 l23 24 -28 32 c-15 17 -31 35 -34 39
-4 5 -26 -4 -49 -19 -55 -36 -134 -40 -177 -8 -27 20 -67 83 -58 92 3 3 83 5
180 4 l175 0 1 32 c5 117 -23 199 -85 253 -56 50 -157 71 -231 49z m139 -141
c27 -29 39 -72 23 -82 -14 -8 -176 -10 -189 -2 -15 10 9 76 35 94 12 8 41 15
65 15 33 0 48 -6 66 -25z"/>
<path d="M4456 4213 c-2 -2 19 -93 46 -201 27 -108 51 -204 53 -212 3 -8 12
-45 21 -82 l17 -68 63 0 c62 0 63 0 73 33 8 26 58 191 90 297 8 25 14 8 87
-237 l28 -93 62 0 c51 0 64 3 68 18 12 38 136 530 136 539 0 7 -113 10 -140 4
-3 0 -7 -13 -8 -28 -1 -16 -6 -41 -11 -58 -6 -16 -20 -82 -31 -145 -12 -63
-23 -116 -24 -117 -2 -2 -25 75 -51 170 -27 94 -50 174 -52 176 -2 3 -27 5
-57 6 l-53 2 -48 -169 c-42 -148 -63 -197 -66 -155 0 6 -2 19 -4 27 -2 8 -6
31 -10 50 -3 19 -16 82 -28 140 l-22 104 -67 2 c-37 0 -69 -1 -72 -3z"/>
<path d="M7391 3774 c-46 -58 -14 -127 58 -128 52 0 84 29 83 74 -2 74 -97
110 -141 54z"/>
</g>
</svg>
